# xmcd
#
# Track frame offsets: 
#        150
#        20705
#        43455
#        69118
#        94266
#        114910
#        138593
#        166904
#        195207
#        215371
#
# Disc length: 3170 seconds
#
# Revision: 0
# Processed by: cddbd v1.5.2PL0 Copyright (c) Steve Scherf et al.
# Submitted via: ExactAudioCopy v1.0b3
#
DISCID=860c600a
DTITLE=Manh Quynh, Kha Tu - Mong Uoc Doi Ta
DYEAR=1998
DGENRE=
TTITLE0=Buon thoi gian
TTITLE1=Kha Tu - Toi buoc vao yeu
TTITLE2=Mua trong long
TTITLE3=Manh Quynh - Dau chan ky niem
TTITLE4=Kha Tu - Doi duong biet ly
TTITLE5=Tham lang
TTITLE6=Manh Quynh - Tinh da nhu mo
TTITLE7=Mong uoc doi ta
TTITLE8=Kha Tu - Phan ma hong
TTITLE9=Manh Quynh - Giot dang
EXTD=
EXTT0=
EXTT1=
EXTT2=
EXTT3=
EXTT4=
EXTT5=
EXTT6=
EXTT7=
EXTT8=
EXTT9=
PLAYORDER=
